<?xml version="1.0" encoding="UTF-8" standalone="no"?>
<svg xmlns:dc="http://purl.org/dc/elements/1.1/" xmlns:cc="http://creativecommons.org/ns#" xmlns:rdf="http://www.w3.org/1999/02/22-rdf-syntax-ns#" xmlns:svg="http://www.w3.org/2000/svg" xmlns="http://www.w3.org/2000/svg" version="1.1" id="svg2" height="64" width="286">
  <metadata id="metadata22">
    <rdf:RDF>
      <cc:Work rdf:about="">
        <dc:format>image/svg+xml</dc:format>
        <dc:type rdf:resource="http://purl.org/dc/dcmitype/StillImage" />
        <dc:title></dc:title>
      </cc:Work>
    </rdf:RDF>
  </metadata>
  <defs id="defs20">
    <filter height="1.1247999" y="-0.062399962" width="1.1155556" x="-0.05777781" id="filter977" style="color-interpolation-filters:sRGB">
      <feGaussianBlur id="feGaussianBlur979" stdDeviation="1.6129639" />
    </filter>
  </defs>
  <g style="font-style:normal;font-variant:normal;font-weight:normal;font-stretch:normal;font-size:60.9524px;line-height:125%;font-family:Cantarell;-inkscape-font-specification:Cantarell;letter-spacing:0px;word-spacing:0px;opacity:1;fill:#241f31;fill-opacity:1;stroke:none;stroke-width:1px;stroke-linecap:butt;stroke-linejoin:miter;stroke-opacity:1" id="text10399" transform="translate(-0.922665,16.819093)">
    <path d="m 105.86554,20.580946 c -3.77144,-0.285715 -4.62858,-0.685715 -4.62858,-2.000002 0,-0.685715 0.51429,-1.257145 1.2,-1.257145 0.17143,0 0.51429,0.05714 0.85715,0.114286 1.31428,0.285715 3.37143,0.514287 4.8,0.514287 7.42858,0 12.68573,-4.457148 12.68573,-10.8000119 0,-3.428575 -1.31429,-5.9428634 -4.45715,-8.3428659 0.57143,-0.5142863 0.91429,-0.6857151 1.77143,-0.6857151 0.51429,0 0.57143,0 1.77143,0.4000005 0.51429,0.1714287 1.02857,0.2857146 1.37143,0.2857146 1.94286,0 3.48572,-1.4857159 3.48572,-3.2571463 0,-2.1714309 -1.94286,-3.8857184 -4.45715,-3.8857184 -1.88571,0 -4.17143,0.9142866 -5.6,2.1714308 -0.74286,0.685715 -1.25715,1.2571442 -2.51429,2.9714317 -2.28572,-0.5142862 -3.42858,-0.685715 -4.97144,-0.685715 -7.31429,0 -12.685724,4.68571927 -12.685724,10.9714402 0,3.2000038 1.314287,5.8857208 3.942861,7.8857228 -3.371432,0.800001 -5.48572,3.485718 -5.48572,6.914293 0,2.000002 0.914287,3.542861 2.857146,4.971434 -2.628574,1.200001 -3.885718,2.800003 -3.885718,5.142862 0,3.028575 2.057145,5.314292 5.771435,6.514293 2.285716,0.742858 5.88572,1.200001 9.08572,1.200001 4.85715,0 9.42858,-0.914287 12.17144,-2.400002 2.80001,-1.542859 4.80001,-5.028577 4.80001,-8.342866 0,-4.457148 -3.02857,-7.085722 -8.85715,-7.600008 z m 1.77143,-19.2000206 c 2.74286,0 3.88572,1.8285734 3.88572,6.285721 0,3.8285756 -1.25715,5.6000056 -3.88572,5.6000056 -2.68572,0 -3.88572,-1.77143 -3.88572,-5.7142914 0,-4.2857189 1.2,-6.1714352 3.88572,-6.1714352 z m 2.74286,28.6286016 c 3.54286,0.400001 4.51429,0.914287 4.51429,2.285717 0,1.828573 -2.68572,2.74286 -8.28573,2.74286 -4.74286,0 -8.228575,-1.428573 -8.228575,-3.314289 0,-1.085716 0.685715,-2.057145 1.885715,-2.800003 z" style="font-style:normal;font-variant:normal;font-weight:bold;font-stretch:normal;font-size:57.1429px;font-family:'URW Bookman L';-inkscape-font-specification:'URW Bookman L Bold';fill:#241f31;fill-opacity:1" id="path10402" />
    <path d="m 154.95577,19.266659 c -0.11429,0.114286 -0.22857,0.228571 -0.4,0.342857 -0.45715,0.457144 -0.74286,0.628572 -1.02857,0.628572 -0.4,0 -0.85715,-0.285714 -0.97143,-0.628572 -0.17143,-0.4 -0.17143,-0.4 -0.22858,-2.571431 V 5.7809301 c 0,-3.0285746 -0.62857,-4.85714799 -2.17143,-6.34286385 -2,-1.94285915 -5.82857,-3.08571755 -10.28572,-3.08571755 -7.37144,0 -12.68573,3.31428922 -12.68573,7.8857226 0,2.4000026 1.82857,4.2857189 4.22858,4.2857189 1.37143,0 2.8,-0.5714292 3.6,-1.5428588 0.57143,-0.685715 0.8,-1.4857159 0.8,-2.8571459 0,-0.8000009 0.17143,-1.2000013 0.51429,-1.4857159 0.68571,-0.6285721 1.94286,-1.0285725 3.14286,-1.0285725 2.45714,0 3.6,1.0285725 3.6,3.0857176 v 2.9142888 c -3.14286,0.2857146 -5.88572,0.8000008 -8.34286,1.5428587 -5.7143,1.7142878 -8.57144,4.7428618 -8.57144,9.0857238 0,4.685719 3.65714,7.82858 9.08572,7.82858 3.20001,0 6.22858,-0.97143 9.08573,-2.914289 1.37143,1.771431 3.94286,2.914289 6.57143,2.914289 2.57143,0 4.68572,-0.857144 7.25715,-2.914289 z m -11.88573,-1.37143 c -1.48571,1.37143 -2.91429,2.000002 -4.51429,2.000002 -1.6,0 -2.68572,-1.142859 -2.68572,-2.857146 0,-2.400003 2.22858,-3.942861 7.20001,-4.857148 z" style="font-style:normal;font-variant:normal;font-weight:bold;font-stretch:normal;font-size:57.1429px;font-family:'URW Bookman L';-inkscape-font-specification:'URW Bookman L Bold';fill:#241f31;fill-opacity:1" id="path10404" />
    <path d="m 190.7317,-3.133365 h -3.54286 l -9.88572,1.6571446 v 4.6285763 l 1.02857,0.1142858 c 2.51429,0.2857146 3.14286,1.2000013 3.14286,4.6857193 v 9.714296 c -2.68572,1.600002 -4.40001,2.171431 -6.22858,2.171431 -2.28572,0 -2.85715,-0.800001 -2.85715,-4.11429 V -3.133365 h -3.54286 l -9.88572,1.6571446 v 4.6285763 l 1.02857,0.1142858 c 2.51429,0.2857146 3.14286,1.2000013 3.14286,4.6857193 v 7.942866 c 0,4.571433 0.62857,6.514292 2.62858,8.285723 1.65714,1.37143 3.94286,2.114288 6.68572,2.114288 3.71429,0 6.17143,-0.742858 10.00001,-2.971432 v 2.228574 h 12.57144 v -4.628577 l -1.77143,-0.4 c -2.17143,-0.514286 -2.51429,-1.085716 -2.51429,-4.342862 z" style="font-style:normal;font-variant:normal;font-weight:bold;font-stretch:normal;font-size:57.1429px;font-family:'URW Bookman L';-inkscape-font-specification:'URW Bookman L Bold';fill:#241f31;fill-opacity:1" id="path10406" />
    <path d="m 209.14065,-3.133365 h -3.54286 l -8.91429,1.6571446 v 4.6285763 l 1.02857,0.1142858 c 2.51429,0.2857146 3.14286,1.2000013 3.14286,4.6857193 v 20.400022 c 0,3.257146 -0.34286,3.828575 -2.51429,4.342861 l -1.65714,0.400001 v 4.628576 h 17.60002 v -4.628576 l -1.65715,-0.400001 c -2.17143,-0.514286 -2.51429,-1.085715 -2.51429,-4.342861 v -3.885719 l 0.62858,0.228572 c 2.74286,1.085715 4.17143,1.37143 6.22857,1.37143 7.7143,0 13.37145,-6.514293 13.37145,-15.314302 0,-8.1142944 -5.94287,-14.4000153 -13.54288,-14.4000153 -2.45714,0 -4.05714,0.4571433 -7.65715,2.1714309 z m 0.97143,7.3714363 c 1.25715,-1.4285729 3.20001,-2.3428596 4.97144,-2.3428596 3.42857,0 5.54286,3.3714321 5.54286,8.6857233 0,6.114292 -2.22857,9.657153 -6.11429,9.657153 -1.48572,0 -3.25715,-0.742858 -4.40001,-1.77143 z" style="font-style:normal;font-variant:normal;font-weight:bold;font-stretch:normal;font-size:57.1429px;font-family:'URW Bookman L';-inkscape-font-specification:'URW Bookman L Bold';fill:#241f31;fill-opacity:1" id="path10408" />
    <path d="m 249.34784,-3.6476513 c -9.25716,0 -15.54288,5.8285776 -15.54288,14.4571583 0,9.371438 6.11429,15.257159 15.82859,15.257159 9.60001,0 15.82859,-5.771435 15.82859,-14.68573 0,-9.2000097 -6.28572,-15.0285873 -16.1143,-15.0285873 z m 0.34285,5.8285776 c 3.60001,0 5.37144,3.1428605 5.37144,9.4285817 0,5.828577 -1.88572,8.914295 -5.37144,8.914295 -3.6,0 -5.48572,-3.085718 -5.48572,-9.028581 0,-6.1714352 1.82858,-9.3142957 5.48572,-9.3142957 z" style="font-style:normal;font-variant:normal;font-weight:bold;font-stretch:normal;font-size:57.1429px;font-family:'URW Bookman L';-inkscape-font-specification:'URW Bookman L Bold';fill:#241f31;fill-opacity:1" id="path10410" />
    <path d="m 281.52733,-15.819093 h -3.77143 c -3.54286,1.542859 -6.00001,2.114288 -9.82858,2.457146 v 4.628576 l 0.97143,0.1142859 c 1.08571,0.1142858 2.17143,0.5714291 2.62857,1.0285725 0.57143,0.5714292 0.74286,1.37143 0.74286,3.6000038 V 16.180941 c 0,3.257146 -0.34286,3.885719 -2.51429,4.342862 l -1.82857,0.4 v 4.628577 h 17.88573 v -4.628577 l -1.77143,-0.4 c -2.17143,-0.514286 -2.51429,-1.085716 -2.51429,-4.342862 z" style="font-style:normal;font-variant:normal;font-weight:bold;font-stretch:normal;font-size:57.1429px;font-family:'URW Bookman L';-inkscape-font-specification:'URW Bookman L Bold';fill:#241f31;fill-opacity:1" id="path10412" />
  </g>
  <path id="rect1083-6" d="M 8.154297,2 C 5.299067,1.9999999 3,3.9030237 3,6.2675782 V 51.082031 c 0,2.364555 2.299067,4.269531 5.154297,4.269531 h 8.183594 l -2.169922,8.685547 14.210937,-8.685547 h 36.46875 C 67.702886,55.351562 70,53.446586 70,51.082031 V 6.2675782 C 70,3.9030237 67.702886,2 64.847656,2 Z" style="display:inline;opacity:1;vector-effect:none;fill:#241f31;fill-opacity:0.5;stroke:none;stroke-width:0.146567;stroke-linecap:butt;stroke-linejoin:miter;stroke-miterlimit:4;stroke-dasharray:none;stroke-dashoffset:0;stroke-opacity:1;marker:none;marker-start:none;marker-mid:none;marker-end:none;paint-order:normal;enable-background:new;filter:url(#filter977)" />
  <g id="g41" transform="matrix(0.62037037,0,0,0.62037037,-3.2037037,-7.4444444)">
    <rect ry="6.8800006" rx="8.3076906" y="12" x="10" height="86" width="108" id="rect1083" style="display:inline;opacity:1;vector-effect:none;fill:#241f31;fill-opacity:1;stroke:none;stroke-width:0.236257;stroke-linecap:butt;stroke-linejoin:miter;stroke-miterlimit:4;stroke-dasharray:none;stroke-dashoffset:0;stroke-opacity:1;marker:none;marker-start:none;marker-mid:none;marker-end:none;paint-order:normal;enable-background:new" />
    <path id="path878" d="M 28,112 42,56 64,90 Z" style="font-variation-settings:normal;opacity:1;vector-effect:none;fill:#ffffff;fill-opacity:1;fill-rule:evenodd;stroke:none;stroke-width:1.99961;stroke-linecap:round;stroke-linejoin:round;stroke-miterlimit:4;stroke-dasharray:none;stroke-dashoffset:0;stroke-opacity:0.8" />
    <path id="path875" d="m 110,55 c 0,31 0,35 -46,35 -46,0 -46,-4 -46,-35 0,-31 0,-35 46,-35 46,0 46,4 46,35 z" style="fill:#ffffff;stroke-width:4.38377;stroke-opacity:0.8" />
    <g transform="translate(0,1)" style="fill:#241f31;fill-opacity:1" id="g886">
      <path style="color:#000000;font-style:normal;font-variant:normal;font-weight:bold;font-stretch:normal;font-size:48px;line-height:25px;font-family:'SF Mono';-inkscape-font-specification:'SF Mono Bold';font-variant-ligatures:normal;font-variant-position:normal;font-variant-caps:normal;font-variant-numeric:normal;font-variant-alternates:normal;font-variant-east-asian:normal;font-feature-settings:normal;font-variation-settings:normal;text-indent:0;text-align:start;text-decoration:none;text-decoration-line:none;text-decoration-style:solid;text-decoration-color:#000000;letter-spacing:0px;word-spacing:0px;text-transform:none;writing-mode:lr-tb;direction:ltr;text-orientation:mixed;dominant-baseline:auto;baseline-shift:baseline;text-anchor:start;white-space:normal;shape-padding:0;shape-margin:0;inline-size:0;clip-rule:nonzero;display:inline;overflow:visible;visibility:visible;opacity:1;isolation:auto;mix-blend-mode:normal;color-interpolation:sRGB;color-interpolation-filters:linearRGB;solid-color:#000000;solid-opacity:1;vector-effect:none;fill:#241f31;fill-opacity:1;fill-rule:nonzero;stroke:none;stroke-width:3.28461;stroke-linecap:butt;stroke-linejoin:miter;stroke-miterlimit:4;stroke-dasharray:none;stroke-dashoffset:0;stroke-opacity:1;color-rendering:auto;image-rendering:auto;shape-rendering:auto;text-rendering:auto;enable-background:accumulate;stop-color:#000000;stop-opacity:1" d="M 63.999072,50.5 C 61.50407,50.5 59.5,52.559706 59.5,55.005479 59.5,57.445573 61.50407,59.5 63.999072,59.5 66.494074,59.5 68.5,57.445573 68.5,55.005479 68.5,52.559706 66.494074,50.5 63.999072,50.5 Z" id="path850" />
      <path style="color:#000000;font-style:normal;font-variant:normal;font-weight:bold;font-stretch:normal;font-size:48px;line-height:25px;font-family:'SF Mono';-inkscape-font-specification:'SF Mono Bold';font-variant-ligatures:normal;font-variant-position:normal;font-variant-caps:normal;font-variant-numeric:normal;font-variant-alternates:normal;font-variant-east-asian:normal;font-feature-settings:normal;font-variation-settings:normal;text-indent:0;text-align:start;text-decoration:none;text-decoration-line:none;text-decoration-style:solid;text-decoration-color:#000000;letter-spacing:0px;word-spacing:0px;text-transform:none;writing-mode:lr-tb;direction:ltr;text-orientation:mixed;dominant-baseline:auto;baseline-shift:baseline;text-anchor:start;white-space:normal;shape-padding:0;shape-margin:0;inline-size:0;clip-rule:nonzero;display:inline;overflow:visible;visibility:visible;opacity:1;isolation:auto;mix-blend-mode:normal;color-interpolation:sRGB;color-interpolation-filters:linearRGB;solid-color:#000000;solid-opacity:1;vector-effect:none;fill:#241f31;fill-opacity:1;fill-rule:nonzero;stroke:none;stroke-width:3.28461;stroke-linecap:butt;stroke-linejoin:miter;stroke-miterlimit:4;stroke-dasharray:none;stroke-dashoffset:0;stroke-opacity:1;color-rendering:auto;image-rendering:auto;shape-rendering:auto;text-rendering:auto;enable-background:accumulate;stop-color:#000000;stop-opacity:1" d="M 83.999072,50.5 C 81.50407,50.5 79.5,52.559706 79.5,55.005479 79.5,57.445573 81.50407,59.5 83.999072,59.5 86.494074,59.5 88.5,57.445573 88.5,55.005479 88.5,52.559706 86.494074,50.5 83.999072,50.5 Z" id="path850-3" />
      <path style="color:#000000;font-style:normal;font-variant:normal;font-weight:bold;font-stretch:normal;font-size:48px;line-height:25px;font-family:'SF Mono';-inkscape-font-specification:'SF Mono Bold';font-variant-ligatures:normal;font-variant-position:normal;font-variant-caps:normal;font-variant-numeric:normal;font-variant-alternates:normal;font-variant-east-asian:normal;font-feature-settings:normal;font-variation-settings:normal;text-indent:0;text-align:start;text-decoration:none;text-decoration-line:none;text-decoration-style:solid;text-decoration-color:#000000;letter-spacing:0px;word-spacing:0px;text-transform:none;writing-mode:lr-tb;direction:ltr;text-orientation:mixed;dominant-baseline:auto;baseline-shift:baseline;text-anchor:start;white-space:normal;shape-padding:0;shape-margin:0;inline-size:0;clip-rule:nonzero;display:inline;overflow:visible;visibility:visible;opacity:1;isolation:auto;mix-blend-mode:normal;color-interpolation:sRGB;color-interpolation-filters:linearRGB;solid-color:#000000;solid-opacity:1;vector-effect:none;fill:#241f31;fill-opacity:1;fill-rule:nonzero;stroke:none;stroke-width:3.28461;stroke-linecap:butt;stroke-linejoin:miter;stroke-miterlimit:4;stroke-dasharray:none;stroke-dashoffset:0;stroke-opacity:1;color-rendering:auto;image-rendering:auto;shape-rendering:auto;text-rendering:auto;enable-background:accumulate;stop-color:#000000;stop-opacity:1" d="M 43.999072,50.5 C 41.50407,50.5 39.5,52.559706 39.5,55.005479 39.5,57.445573 41.50407,59.5 43.999072,59.5 46.494074,59.5 48.5,57.445573 48.5,55.005479 48.5,52.559706 46.494074,50.5 43.999072,50.5 Z" id="path850-6" />
    </g>
  </g>
</svg>
