<?xml version="1.0" encoding="UTF-8" standalone="no"?>
<!-- Created with Inkscape (http://www.inkscape.org/) -->

<svg
   xmlns:dc="http://purl.org/dc/elements/1.1/"
   xmlns:cc="http://creativecommons.org/ns#"
   xmlns:rdf="http://www.w3.org/1999/02/22-rdf-syntax-ns#"
   xmlns:svg="http://www.w3.org/2000/svg"
   xmlns="http://www.w3.org/2000/svg"
   xmlns:xlink="http://www.w3.org/1999/xlink"
   xmlns:sodipodi="http://sodipodi.sourceforge.net/DTD/sodipodi-0.dtd"
   xmlns:inkscape="http://www.inkscape.org/namespaces/inkscape"
   width="286"
   height="64"
   id="svg2"
   sodipodi:version="0.32"
   inkscape:version="0.91 r13725"
   inkscape:export-xdpi="120"
   inkscape:export-ydpi="120"
   sodipodi:docname="title.svg"
   version="1.1">
  <metadata
     id="metadata20">
    <rdf:RDF>
      <cc:Work
         rdf:about="">
        <dc:format>image/svg+xml</dc:format>
        <dc:type
           rdf:resource="http://purl.org/dc/dcmitype/StillImage" />
      </cc:Work>
    </rdf:RDF>
  </metadata>
  <defs
     id="defs4">
    <linearGradient
       id="linearGradient2860">
      <stop
         style="stop-color:black;stop-opacity:0.84313726;"
         offset="0"
         id="stop2862" />
      <stop
         style="stop-color:black;stop-opacity:0;"
         offset="1"
         id="stop2864" />
    </linearGradient>
    <radialGradient
       inkscape:collect="always"
       xlink:href="#linearGradient2860"
       id="radialGradient2866"
       cx="24"
       cy="44.232143"
       fx="24"
       fy="44.232143"
       r="24"
       gradientTransform="matrix(1.5238111,0,0,0.41269905,0,18.84068)"
       gradientUnits="userSpaceOnUse" />
  </defs>
  <sodipodi:namedview
     id="base"
     pagecolor="#ffffff"
     bordercolor="#666666"
     borderopacity="1.0"
     inkscape:pageopacity="0.0"
     inkscape:pageshadow="2"
     inkscape:zoom="6.2587413"
     inkscape:cx="143"
     inkscape:cy="32"
     inkscape:document-units="px"
     inkscape:current-layer="layer1"
     inkscape:showpageshadow="false"
     showgrid="true"
     inkscape:grid-points="true"
     inkscape:window-width="1270"
     inkscape:window-height="907"
     inkscape:window-x="0"
     inkscape:window-y="0"
     inkscape:grid-bbox="true"
     inkscape:guide-points="true"
     units="px"
     fit-margin-top="0"
     fit-margin-left="0"
     fit-margin-right="0"
     fit-margin-bottom="0" />
  <g
     inkscape:label="Layer 1"
     inkscape:groupmode="layer"
     id="layer1"
     transform="translate(0,17.000044)">
    <ellipse
       style="fill:url(#radialGradient2866);fill-opacity:1;stroke:none;stroke-width:1.20000005;stroke-linejoin:round;stroke-miterlimit:4;stroke-dasharray:none;stroke-opacity:1"
       id="path1971"
       cx="36.571468"
       cy="37.095207"
       rx="36.571468"
       ry="9.9047489" />
    <path
       style="color:#000000;display:inline;overflow:visible;visibility:visible;opacity:1;fill:#ffffff;fill-opacity:1;fill-rule:evenodd;stroke:none;stroke-width:1.15806293;stroke-linecap:butt;stroke-linejoin:bevel;stroke-miterlimit:10;stroke-dashoffset:0;stroke-opacity:1;marker:none;marker-start:none;marker-mid:none;marker-end:none"
       d="m 60.952445,-12.428611 c 0,9.1428669 0,27.4286 0,38.095278 C 50.285767,30.238101 42.666712,32.529609 13.7143,40.904779 10.666678,11.952367 9.1428668,-0.23812186 7.6190557,-12.428611 c 15.2381113,0 38.9915793,0 53.3333893,0 z"
       id="path1401"
       sodipodi:nodetypes="ccccc"
       inkscape:connector-curvature="0" />
    <path
       style="color:#000000;display:inline;overflow:visible;visibility:visible;opacity:1;fill:#222222;fill-opacity:1;fill-rule:evenodd;stroke:none;stroke-width:1.15806293;stroke-linecap:butt;stroke-linejoin:bevel;stroke-miterlimit:10;stroke-dashoffset:0;stroke-opacity:1;marker:none;marker-start:none;marker-mid:none;marker-end:none"
       d="m 70.095312,-17.000044 0,57.904823 c -3.047622,0 -64.0000675,0 -67.0476897,0 l 0,-57.904823 c 3.0476222,0 64.0000677,0 67.0476897,0 z M 36.571467,-4.8095553 c -21.333356,0 -21.333356,1.5238112 -21.333356,16.7619223 0,13.7143 2.374186,13.7143 2.374186,13.7143 -3.897997,15.238112 -0.08073,-0.08073 -3.897997,15.238112 22.857167,-12.190489 0,0 22.857167,-12.190489 21.333572,0 21.333356,-1.523811 21.333356,-16.761923 0,-15.2381111 0,-16.7619223 -21.333356,-16.7619223 z"
       id="path3599"
       sodipodi:nodetypes="ccccccsccczz"
       inkscape:connector-curvature="0" />
    <g
       style="font-style:normal;font-variant:normal;font-weight:normal;font-stretch:normal;font-size:60.95244598px;line-height:125%;font-family:Cantarell;-inkscape-font-specification:Cantarell;letter-spacing:0px;word-spacing:0px;fill:#222222;fill-opacity:1;stroke:none;stroke-width:1px;stroke-linecap:butt;stroke-linejoin:miter;stroke-opacity:1"
       id="text10399">
      <path
         d="m 105.86554,20.580946 c -3.77144,-0.285715 -4.62858,-0.685715 -4.62858,-2.000002 0,-0.685715 0.51429,-1.257145 1.2,-1.257145 0.17143,0 0.51429,0.05714 0.85715,0.114286 1.31428,0.285715 3.37143,0.514287 4.8,0.514287 7.42858,0 12.68573,-4.457148 12.68573,-10.8000119 0,-3.428575 -1.31429,-5.9428634 -4.45715,-8.3428659 0.57143,-0.5142863 0.91429,-0.6857151 1.77143,-0.6857151 0.51429,0 0.57143,0 1.77143,0.4000005 0.51429,0.1714287 1.02857,0.2857146 1.37143,0.2857146 1.94286,0 3.48572,-1.4857159 3.48572,-3.2571463 0,-2.1714309 -1.94286,-3.8857184 -4.45715,-3.8857184 -1.88571,0 -4.17143,0.9142866 -5.6,2.1714308 -0.74286,0.685715 -1.25715,1.2571442 -2.51429,2.9714317 -2.28572,-0.5142862 -3.42858,-0.685715 -4.97144,-0.685715 -7.31429,0 -12.685724,4.68571927 -12.685724,10.9714402 0,3.2000038 1.314287,5.8857208 3.942861,7.8857228 -3.371432,0.800001 -5.48572,3.485718 -5.48572,6.914293 0,2.000002 0.914287,3.542861 2.857146,4.971434 -2.628574,1.200001 -3.885718,2.800003 -3.885718,5.142862 0,3.028575 2.057145,5.314292 5.771435,6.514293 2.285716,0.742858 5.88572,1.200001 9.08572,1.200001 4.85715,0 9.42858,-0.914287 12.17144,-2.400002 2.80001,-1.542859 4.80001,-5.028577 4.80001,-8.342866 0,-4.457148 -3.02857,-7.085722 -8.85715,-7.600008 l -9.02858,-0.800001 z m 1.77143,-19.2000206 c 2.74286,0 3.88572,1.8285734 3.88572,6.285721 0,3.8285756 -1.25715,5.6000056 -3.88572,5.6000056 -2.68572,0 -3.88572,-1.77143 -3.88572,-5.7142914 0,-4.2857189 1.2,-6.1714352 3.88572,-6.1714352 z m 2.74286,28.6286016 c 3.54286,0.400001 4.51429,0.914287 4.51429,2.285717 0,1.828573 -2.68572,2.74286 -8.28573,2.74286 -4.74286,0 -8.228575,-1.428573 -8.228575,-3.314289 0,-1.085716 0.685715,-2.057145 1.885715,-2.800003 l 10.1143,1.085715 z"
         style="font-style:normal;font-variant:normal;font-weight:bold;font-stretch:normal;font-size:57.14291763px;font-family:'URW Bookman L';-inkscape-font-specification:'URW Bookman L Bold';fill:#222222;fill-opacity:1"
         id="path10402"
         inkscape:connector-curvature="0" />
      <path
         d="m 154.95577,19.266659 c -0.11429,0.114286 -0.22857,0.228571 -0.4,0.342857 -0.45715,0.457144 -0.74286,0.628572 -1.02857,0.628572 -0.4,0 -0.85715,-0.285714 -0.97143,-0.628572 -0.17143,-0.4 -0.17143,-0.4 -0.22858,-2.571431 l 0,-11.2571549 c 0,-3.0285746 -0.62857,-4.85714799 -2.17143,-6.34286385 -2,-1.94285915 -5.82857,-3.08571755 -10.28572,-3.08571755 -7.37144,0 -12.68573,3.31428922 -12.68573,7.8857226 0,2.4000026 1.82857,4.2857189 4.22858,4.2857189 1.37143,0 2.8,-0.5714292 3.6,-1.5428588 0.57143,-0.685715 0.8,-1.4857159 0.8,-2.8571459 0,-0.8000009 0.17143,-1.2000013 0.51429,-1.4857159 0.68571,-0.6285721 1.94286,-1.0285725 3.14286,-1.0285725 2.45714,0 3.6,1.0285725 3.6,3.0857176 l 0,2.9142888 c -3.14286,0.2857146 -5.88572,0.8000008 -8.34286,1.5428587 -5.7143,1.7142878 -8.57144,4.7428618 -8.57144,9.0857238 0,4.685719 3.65714,7.82858 9.08572,7.82858 3.20001,0 6.22858,-0.97143 9.08573,-2.914289 1.37143,1.771431 3.94286,2.914289 6.57143,2.914289 2.57143,0 4.68572,-0.857144 7.25715,-2.914289 l -3.2,-3.885718 z m -11.88573,-1.37143 c -1.48571,1.37143 -2.91429,2.000002 -4.51429,2.000002 -1.6,0 -2.68572,-1.142859 -2.68572,-2.857146 0,-2.400003 2.22858,-3.942861 7.20001,-4.857148 l 0,5.714292 z"
         style="font-style:normal;font-variant:normal;font-weight:bold;font-stretch:normal;font-size:57.14291763px;font-family:'URW Bookman L';-inkscape-font-specification:'URW Bookman L Bold';fill:#222222;fill-opacity:1"
         id="path10404"
         inkscape:connector-curvature="0" />
      <path
         d="m 190.7317,-3.133365 -3.54286,0 -9.88572,1.6571446 0,4.6285763 1.02857,0.1142858 c 2.51429,0.2857146 3.14286,1.2000013 3.14286,4.6857193 l 0,9.714296 c -2.68572,1.600002 -4.40001,2.171431 -6.22858,2.171431 -2.28572,0 -2.85715,-0.800001 -2.85715,-4.11429 l 0,-18.857163 -3.54286,0 -9.88572,1.6571446 0,4.6285763 1.02857,0.1142858 c 2.51429,0.2857146 3.14286,1.2000013 3.14286,4.6857193 l 0,7.942866 c 0,4.571433 0.62857,6.514292 2.62858,8.285723 1.65714,1.37143 3.94286,2.114288 6.68572,2.114288 3.71429,0 6.17143,-0.742858 10.00001,-2.971432 l 0,2.228574 12.57144,0 0,-4.628577 -1.77143,-0.4 c -2.17143,-0.514286 -2.51429,-1.085716 -2.51429,-4.342862 l 0,-19.314306 z"
         style="font-style:normal;font-variant:normal;font-weight:bold;font-stretch:normal;font-size:57.14291763px;font-family:'URW Bookman L';-inkscape-font-specification:'URW Bookman L Bold';fill:#222222;fill-opacity:1"
         id="path10406"
         inkscape:connector-curvature="0" />
      <path
         d="m 209.14065,-3.133365 -3.54286,0 -8.91429,1.6571446 0,4.6285763 1.02857,0.1142858 c 2.51429,0.2857146 3.14286,1.2000013 3.14286,4.6857193 l 0,20.400022 c 0,3.257146 -0.34286,3.828575 -2.51429,4.342861 l -1.65714,0.400001 0,4.628576 17.60002,0 0,-4.628576 -1.65715,-0.400001 c -2.17143,-0.514286 -2.51429,-1.085715 -2.51429,-4.342861 l 0,-3.885719 0.62858,0.228572 c 2.74286,1.085715 4.17143,1.37143 6.22857,1.37143 7.7143,0 13.37145,-6.514293 13.37145,-15.314302 0,-8.1142944 -5.94287,-14.4000153 -13.54288,-14.4000153 -2.45714,0 -4.05714,0.4571433 -7.65715,2.1714309 l 0,-1.6571446 z m 0.97143,7.3714363 c 1.25715,-1.4285729 3.20001,-2.3428596 4.97144,-2.3428596 3.42857,0 5.54286,3.3714321 5.54286,8.6857233 0,6.114292 -2.22857,9.657153 -6.11429,9.657153 -1.48572,0 -3.25715,-0.742858 -4.40001,-1.77143 l 0,-14.2285867 z"
         style="font-style:normal;font-variant:normal;font-weight:bold;font-stretch:normal;font-size:57.14291763px;font-family:'URW Bookman L';-inkscape-font-specification:'URW Bookman L Bold';fill:#222222;fill-opacity:1"
         id="path10408"
         inkscape:connector-curvature="0" />
      <path
         d="m 249.34784,-3.6476513 c -9.25716,0 -15.54288,5.8285776 -15.54288,14.4571583 0,9.371438 6.11429,15.257159 15.82859,15.257159 9.60001,0 15.82859,-5.771435 15.82859,-14.68573 0,-9.2000097 -6.28572,-15.0285873 -16.1143,-15.0285873 z m 0.34285,5.8285776 c 3.60001,0 5.37144,3.1428605 5.37144,9.4285817 0,5.828577 -1.88572,8.914295 -5.37144,8.914295 -3.6,0 -5.48572,-3.085718 -5.48572,-9.028581 0,-6.1714352 1.82858,-9.3142957 5.48572,-9.3142957 z"
         style="font-style:normal;font-variant:normal;font-weight:bold;font-stretch:normal;font-size:57.14291763px;font-family:'URW Bookman L';-inkscape-font-specification:'URW Bookman L Bold';fill:#222222;fill-opacity:1"
         id="path10410"
         inkscape:connector-curvature="0" />
      <path
         d="m 281.52733,-15.819093 -3.77143,0 c -3.54286,1.542859 -6.00001,2.114288 -9.82858,2.457146 l 0,4.628576 0.97143,0.1142859 c 1.08571,0.1142858 2.17143,0.5714291 2.62857,1.0285725 0.57143,0.5714292 0.74286,1.37143 0.74286,3.6000038 l 0,20.1714498 c 0,3.257146 -0.34286,3.885719 -2.51429,4.342862 l -1.82857,0.4 0,4.628577 17.88573,0 0,-4.628577 -1.77143,-0.4 c -2.17143,-0.514286 -2.51429,-1.085716 -2.51429,-4.342862 l 0,-32.000034 z"
         style="font-style:normal;font-variant:normal;font-weight:bold;font-stretch:normal;font-size:57.14291763px;font-family:'URW Bookman L';-inkscape-font-specification:'URW Bookman L Bold';fill:#222222;fill-opacity:1"
         id="path10412"
         inkscape:connector-curvature="0" />
    </g>
  </g>
</svg>
